<svg width="20" height="16" viewBox="0 0 20 16" fill="none" xmlns="http://www.w3.org/2000/svg">
<path d="M19.209 2.41663H20V0.083252H12.5198L10.0339 9.24988H9.96594L7.50269 0.083252H0V2.41657H0.76837C0.945999 2.44548 1.1108 2.52723 1.2413 2.65115C1.3718 2.77507 1.46195 2.93543 1.5 3.11133V12.9417C1.4596 13.1112 1.36749 13.2641 1.23642 13.379C1.10534 13.494 0.941782 13.5653 0.76837 13.5833H0V15.9166H6V13.5833H4.5V3.24994H4.58752L8.0451 15.9166H10.7571L14.2599 3.24994H14.3334V13.5833H12.8334V15.9166H20V13.5833H19.209C19.0396 13.5612 18.8809 13.488 18.7542 13.3733C18.6275 13.2587 18.5388 13.1081 18.5 12.9417V3.11139C18.5367 2.93868 18.6236 2.78065 18.7497 2.65707C18.8759 2.53349 19.0356 2.44986 19.209 2.41663Z" fill="#0E1766"/>
</svg>
